<svg version="1.0" xmlns="http://www.w3.org/2000/svg"
 width="500.000000pt" height="500.000000pt" viewBox="0 0 500.000000 500.000000"
 preserveAspectRatio="xMidYMid meet">

<g transform="translate(0.000000,500.000000) scale(0.100000,-0.100000)"
fill="#38B6FF" stroke="none">
<path d="M2335 4994 c-341 -29 -631 -108 -932 -254 -249 -121 -463 -273 -655
-462 -394 -390 -636 -868 -719 -1420 -28 -187 -30 -504 -5 -683 106 -740 493
-1355 1112 -1765 401 -265 870 -404 1364 -403 268 0 475 29 707 99 563 170
1033 515 1362 999 222 326 362 703 412 1110 16 129 16 441 0 570 -104 838
-602 1558 -1338 1933 -354 181 -696 267 -1088 276 -93 2 -192 2 -220 0z m405
-889 c467 -58 894 -223 1335 -518 168 -112 237 -166 228 -180 -37 -62 -320
-417 -329 -413 -7 3 -48 31 -91 63 -197 146 -479 301 -688 378 -115 43 -316
96 -455 121 -127 23 -433 23 -579 0 -367 -58 -717 -195 -1059 -415 -63 -40
-115 -71 -116 -69 -1 1 -18 26 -37 53 -20 28 -88 127 -152 222 l-117 171 118
74 c494 313 956 479 1447 521 116 10 383 5 495 -8z m18 -876 c344 -59 694
-239 1034 -530 45 -39 84 -73 86 -74 4 -4 -360 -395 -368 -395 -4 0 -47 34
-95 75 -251 215 -540 358 -797 396 -98 14 -293 6 -393 -16 -237 -52 -445 -156
-713 -358 -46 -35 -55 -38 -67 -26 -40 40 -325 395 -324 404 0 6 37 37 82 71
538 401 1030 544 1555 453z m-752 -991 c118 -174 234 -290 341 -343 115 -56
238 -34 371 68 67 52 181 170 242 250 23 32 47 57 52 57 7 0 390 -276 430
-309 12 -10 -125 -176 -236 -286 -131 -130 -215 -193 -353 -262 l-113 -57 0
-263 0 -263 -275 0 -275 0 0 268 0 269 -82 41 c-115 56 -229 144 -339 260 -99
104 -272 336 -267 358 3 13 424 282 444 283 6 1 33 -31 60 -71z"/>
</g>
</svg>
