<?xml version="1.0" standalone="no"?>
<!DOCTYPE svg PUBLIC "-//W3C//DTD SVG 20010904//EN"
 "http://www.w3.org/TR/2001/REC-SVG-20010904/DTD/svg10.dtd">
<svg version="1.0" xmlns="http://www.w3.org/2000/svg"
 width="64.000000pt" height="64.000000pt" viewBox="0 0 64.000000 64.000000"
 preserveAspectRatio="xMidYMid meet">

<g transform="translate(0.000000,64.000000) scale(0.100000,-0.100000)"
fill="#c7c7c7" stroke="none">
<path d="M240 537 c-49 -16 -123 -93 -138 -143 -27 -91 -8 -169 58 -234 65
-65 143 -85 231 -58 39 11 119 71 119 89 0 17 -79 9 -120 -12 -72 -37 -152
-16 -204 55 -29 39 -29 133 0 172 52 71 132 92 204 55 41 -21 120 -29 120 -12
0 18 -80 78 -119 89 -46 14 -104 14 -151 -1z"/>
<path d="M452 375 c5 -24 4 -25 -52 -25 -65 0 -93 -18 -70 -45 8 -10 31 -15
70 -15 56 0 57 -1 52 -25 -3 -20 0 -25 15 -25 22 0 83 59 83 81 0 21 -62 79
-84 79 -14 0 -17 -6 -14 -25z"/>
</g>
</svg>
