<svg xmlns="http://www.w3.org/2000/svg" xmlns:xlink="http://www.w3.org/1999/xlink" width="500" zoomAndPan="magnify" viewBox="0 0 375 374.999991" height="500" preserveAspectRatio="xMidYMid meet" version="1.0"><defs><g/></defs><path stroke-linecap="butt" transform="matrix(0, -0.75, 0.75, 0, 274.605044, 195.807071)" fill="none" stroke-linejoin="miter" d="M -0.00203014 3.000566 L 10.919846 3.000566 " stroke="#ffffff" stroke-width="6" stroke-opacity="1" stroke-miterlimit="4"/><path stroke-linecap="butt" transform="matrix(0.749662, 0.022509, -0.022509, 0.749662, 265.707496, 175.154475)" fill="none" stroke-linejoin="miter" d="M 1.969729 8.874332 C 10.952312 1.043928 19.935406 1.03995 28.914119 8.872968 " stroke="#ffffff" stroke-width="6" stroke-opacity="1" stroke-miterlimit="4"/><path stroke-linecap="butt" transform="matrix(0.749713, 0.020748, -0.020748, 0.749713, 262.08485, 167.821146)" fill="none" stroke-linejoin="miter" d="M 1.766228 9.735004 C 14.111061 0.754642 26.464803 0.756638 38.811547 9.731012 " stroke="#ffffff" stroke-width="6" stroke-opacity="1" stroke-miterlimit="4"/><g fill="#ffffff" fill-opacity="1"><g transform="translate(91.284028, 196.499987)"><g><path d="M 9.640625 0.355469 C 13.746094 0.355469 17.605469 -2.320312 17.605469 -7.140625 C 17.605469 -10.140625 16.140625 -12.675781 13.425781 -13.925781 C 11.605469 -14.78125 9.820312 -14.78125 9.640625 -14.78125 C 8 -14.78125 6.425781 -15.746094 6.425781 -17.605469 C 6.425781 -19.675781 7.890625 -20.710938 9.640625 -20.710938 C 11.320312 -20.710938 12.710938 -19.851562 12.785156 -18.03125 C 12.785156 -17.925781 12.960938 -17.78125 13.140625 -17.78125 L 17.175781 -17.78125 C 17.390625 -17.78125 17.53125 -17.925781 17.53125 -18.03125 C 17.460938 -22.386719 14.03125 -25.351562 9.640625 -25.351562 C 5.535156 -25.351562 1.640625 -22.425781 1.640625 -17.605469 C 1.640625 -14.605469 3.140625 -12.355469 5.820312 -11.105469 C 7.675781 -10.25 9.425781 -10.25 9.640625 -10.25 C 11.105469 -10.175781 12.855469 -9.035156 12.855469 -7.140625 C 12.855469 -5.425781 11.355469 -4.285156 9.640625 -4.285156 C 8 -4.285156 6.5 -5.214844 6.425781 -7.035156 C 6.425781 -7.175781 6.25 -7.320312 6.070312 -7.320312 L 2 -7.320312 C 1.785156 -7.320312 1.640625 -7.175781 1.640625 -7.035156 C 1.714844 -2.320312 5.214844 0.25 9.640625 0.355469 Z M 9.640625 0.355469 "/></g></g></g><g fill="#ffffff" fill-opacity="1"><g transform="translate(113.529732, 196.499987)"><g><path d="M 15.460938 -20.996094 L 15.460938 -24.710938 C 15.460938 -24.851562 15.320312 -24.996094 15.105469 -24.996094 L 0.785156 -24.996094 C 0.570312 -24.996094 0.429688 -24.851562 0.429688 -24.710938 L 0.429688 -20.996094 C 0.429688 -20.851562 0.570312 -20.710938 0.785156 -20.710938 L 5.570312 -20.710938 L 5.570312 -0.285156 C 5.570312 -0.144531 5.714844 0 5.925781 0 L 9.960938 0 C 10.175781 0 10.320312 -0.144531 10.320312 -0.285156 L 10.320312 -20.710938 L 15.105469 -20.710938 C 15.320312 -20.710938 15.460938 -20.851562 15.460938 -20.996094 Z M 15.460938 -20.996094 "/></g></g></g><g fill="#ffffff" fill-opacity="1"><g transform="translate(132.38327, 196.499987)"><g><path d="M 15.710938 0 L 20.496094 0 C 20.746094 0 20.890625 -0.214844 20.746094 -0.429688 L 14.320312 -10.710938 C 16.746094 -11.460938 19.566406 -13.210938 19.566406 -17.605469 C 19.566406 -24.996094 11.070312 -24.996094 11.070312 -24.996094 L 2.929688 -24.996094 C 2.714844 -24.996094 2.570312 -24.851562 2.570312 -24.710938 L 2.570312 -20.601562 L 6.25 -14.820312 L 2.929688 -14.820312 C 2.714844 -14.820312 2.570312 -14.675781 2.570312 -14.53125 L 2.570312 -0.285156 C 2.570312 -0.144531 2.714844 0 2.929688 0 L 7 0 C 7.214844 0 7.355469 -0.144531 7.355469 -0.285156 L 7.355469 -10.175781 L 9.105469 -10.175781 L 15.390625 -0.144531 C 15.425781 -0.0703125 15.605469 0 15.710938 0 Z M 11.535156 -14.855469 L 8.070312 -20.351562 L 11.070312 -20.351562 C 11.890625 -20.351562 14.78125 -20.351562 14.78125 -17.605469 C 14.78125 -15.460938 12.890625 -14.890625 11.535156 -14.855469 Z M 11.535156 -14.855469 "/></g></g></g><g fill="#ffffff" fill-opacity="1"><g transform="translate(157.092759, 196.499987)"><g><path d="M 7.320312 -20.460938 L 18.855469 -20.460938 C 19.066406 -20.460938 19.210938 -20.601562 19.210938 -20.746094 L 19.210938 -24.710938 C 19.210938 -24.851562 19.066406 -24.996094 18.855469 -24.996094 L 2.890625 -24.996094 C 2.679688 -24.996094 2.535156 -24.851562 2.535156 -24.710938 L 2.535156 -0.285156 C 2.535156 -0.144531 2.679688 0 2.890625 0 L 19.175781 0 C 19.390625 0 19.53125 -0.144531 19.53125 -0.285156 L 19.53125 -4.355469 C 19.53125 -4.5 19.390625 -4.640625 19.175781 -4.640625 L 7.320312 -4.640625 L 7.320312 -10.285156 L 17.140625 -10.285156 C 17.316406 -10.285156 17.460938 -10.425781 17.460938 -10.570312 L 17.460938 -14.53125 C 17.460938 -14.675781 17.316406 -14.820312 17.140625 -14.820312 L 7.320312 -14.820312 Z M 7.320312 -20.460938 "/></g></g></g><g fill="#ffffff" fill-opacity="1"><g transform="translate(180.945283, 196.499987)"><g><path d="M 14.210938 -2.820312 L 15.246094 -0.179688 C 15.28125 -0.0703125 15.425781 0 15.53125 0 L 19.960938 0 C 20.210938 0 20.351562 -0.179688 20.246094 -0.394531 L 10.496094 -25.53125 C 10.390625 -25.78125 9.960938 -25.78125 9.855469 -25.53125 L 0.105469 -0.394531 C 0 -0.179688 0.144531 0 0.429688 0 L 4.820312 0 C 4.964844 0 5.105469 -0.0703125 5.140625 -0.179688 L 6.105469 -2.820312 Z M 7.640625 -7.035156 L 10.175781 -14.53125 L 12.675781 -7.035156 Z M 7.640625 -7.035156 "/></g></g></g><g fill="#ffffff" fill-opacity="1"><g transform="translate(204.155073, 196.499987)"><g><path d="M 29.746094 -0.285156 L 29.746094 -24.746094 C 29.746094 -24.886719 29.601562 -25.03125 29.386719 -25.03125 L 25.246094 -25.03125 C 25.136719 -25.03125 24.960938 -24.925781 24.925781 -24.851562 L 16.355469 -6.5 L 7.390625 -24.851562 C 7.355469 -24.925781 7.175781 -25.03125 7.070312 -25.03125 L 2.890625 -25.03125 C 2.679688 -25.03125 2.570312 -24.886719 2.570312 -24.746094 L 2.570312 -0.285156 C 2.570312 -0.144531 2.679688 0 2.890625 0 L 7 0 C 7.214844 0 7.355469 -0.144531 7.355469 -0.285156 L 7.355469 -14.320312 L 14.140625 -1.179688 C 14.175781 -1.105469 14.355469 -1 14.460938 -1 L 18.316406 -1 C 18.390625 -1 18.566406 -1.105469 18.605469 -1.179688 L 24.960938 -13.996094 L 24.960938 -0.285156 C 24.960938 -0.144531 25.101562 0 25.316406 0 L 29.386719 0 C 29.601562 0 29.746094 -0.144531 29.746094 -0.285156 Z M 29.746094 -0.285156 "/></g></g></g><g fill="#ffffff" fill-opacity="1"><g transform="translate(239.719486, 196.499987)"><g><path d="M 19.496094 -17.855469 C 19.496094 -25.171875 11.035156 -24.996094 11.035156 -24.996094 L 2.890625 -24.996094 C 2.679688 -24.996094 2.535156 -24.851562 2.535156 -24.710938 L 2.535156 -0.285156 C 2.535156 -0.144531 2.679688 0 2.890625 0 L 11.035156 0 C 12.710938 0 19.851562 -0.320312 19.851562 -7.285156 C 19.851562 -7.285156 19.996094 -11.140625 16.03125 -12.496094 C 17.925781 -13.28125 19.496094 -14.925781 19.496094 -17.855469 Z M 7.285156 -14.820312 L 7.285156 -20.53125 L 11.035156 -20.53125 C 11.035156 -20.53125 14.710938 -20.566406 14.710938 -17.566406 C 14.710938 -14.820312 11.035156 -14.820312 11.035156 -14.820312 Z M 11.035156 -4.570312 L 7.285156 -4.570312 L 7.285156 -10.140625 L 11.035156 -10.140625 C 11.035156 -10.140625 15.070312 -10.355469 15.070312 -7.390625 C 15.070312 -5 12.605469 -4.570312 11.035156 -4.570312 Z M 11.035156 -4.570312 "/></g></g></g><path stroke-linecap="butt" transform="matrix(-0.749445, -0.0288544, 0.0288544, -0.749445, 284.865485, 192.017858)" fill="none" stroke-linejoin="miter" d="M 2.484152 9.2111 C 8.096863 0.931743 13.710301 0.92932 19.324667 9.209034 " stroke="#ffffff" stroke-width="6" stroke-opacity="1" stroke-miterlimit="4"/></svg>