<svg xmlns="http://www.w3.org/2000/svg" xmlns:xlink="http://www.w3.org/1999/xlink" width="500" zoomAndPan="magnify" viewBox="0 0 375 374.999991" height="500" preserveAspectRatio="xMidYMid meet" version="1.0"><defs><g/></defs><g fill="#ffffff" fill-opacity="1"><g transform="translate(6.014691, 203.664275)"><g><path d="M 17.3125 0.640625 C 24.6875 0.640625 31.613281 -4.167969 31.613281 -12.824219 C 31.613281 -18.210938 28.984375 -22.761719 24.109375 -25.007812 C 20.839844 -26.546875 17.632812 -26.546875 17.3125 -26.546875 C 14.363281 -26.546875 11.542969 -28.277344 11.542969 -31.613281 C 11.542969 -35.332031 14.171875 -37.191406 17.3125 -37.191406 C 20.328125 -37.191406 22.828125 -35.652344 22.957031 -32.382812 C 22.957031 -32.1875 23.277344 -31.933594 23.597656 -31.933594 L 30.84375 -31.933594 C 31.226562 -31.933594 31.484375 -32.1875 31.484375 -32.382812 C 31.355469 -40.203125 25.199219 -45.527344 17.3125 -45.527344 C 9.9375 -45.527344 2.949219 -40.269531 2.949219 -31.613281 C 2.949219 -26.226562 5.644531 -22.1875 10.453125 -19.941406 C 13.785156 -18.402344 16.929688 -18.402344 17.3125 -18.402344 C 19.941406 -18.273438 23.082031 -16.222656 23.082031 -12.824219 C 23.082031 -9.746094 20.390625 -7.695312 17.3125 -7.695312 C 14.363281 -7.695312 11.671875 -9.363281 11.542969 -12.632812 C 11.542969 -12.886719 11.222656 -13.144531 10.902344 -13.144531 L 3.589844 -13.144531 C 3.207031 -13.144531 2.949219 -12.886719 2.949219 -12.632812 C 3.078125 -4.167969 9.363281 0.449219 17.3125 0.640625 Z M 17.3125 0.640625 "/></g></g></g><g fill="#ffffff" fill-opacity="1"><g transform="translate(45.962212, 203.664275)"><g><path d="M 27.765625 -37.703125 L 27.765625 -44.371094 C 27.765625 -44.628906 27.507812 -44.886719 27.125 -44.886719 L 1.410156 -44.886719 C 1.027344 -44.886719 0.769531 -44.628906 0.769531 -44.371094 L 0.769531 -37.703125 C 0.769531 -37.445312 1.027344 -37.191406 1.410156 -37.191406 L 10.003906 -37.191406 L 10.003906 -0.511719 C 10.003906 -0.257812 10.257812 0 10.644531 0 L 17.890625 0 C 18.273438 0 18.53125 -0.257812 18.53125 -0.511719 L 18.53125 -37.191406 L 27.125 -37.191406 C 27.507812 -37.191406 27.765625 -37.445312 27.765625 -37.703125 Z M 27.765625 -37.703125 "/></g></g></g><g fill="#ffffff" fill-opacity="1"><g transform="translate(79.818282, 203.664275)"><g><path d="M 28.214844 0 L 36.804688 0 C 37.253906 0 37.511719 -0.382812 37.253906 -0.769531 L 25.710938 -19.238281 C 30.074219 -20.582031 35.136719 -23.726562 35.136719 -31.613281 C 35.136719 -44.886719 19.878906 -44.886719 19.878906 -44.886719 L 5.257812 -44.886719 C 4.875 -44.886719 4.617188 -44.628906 4.617188 -44.371094 L 4.617188 -37 L 11.222656 -26.609375 L 5.257812 -26.609375 C 4.875 -26.609375 4.617188 -26.355469 4.617188 -26.097656 L 4.617188 -0.511719 C 4.617188 -0.257812 4.875 0 5.257812 0 L 12.566406 0 C 12.953125 0 13.210938 -0.257812 13.210938 -0.511719 L 13.210938 -18.273438 L 16.351562 -18.273438 L 27.636719 -0.257812 C 27.699219 -0.128906 28.019531 0 28.214844 0 Z M 20.710938 -26.675781 L 14.492188 -36.550781 L 19.878906 -36.550781 C 21.351562 -36.550781 26.546875 -36.550781 26.546875 -31.613281 C 26.546875 -27.765625 23.148438 -26.738281 20.710938 -26.675781 Z M 20.710938 -26.675781 "/></g></g></g><g fill="#ffffff" fill-opacity="1"><g transform="translate(124.190124, 203.664275)"><g><path d="M 13.144531 -36.742188 L 33.855469 -36.742188 C 34.242188 -36.742188 34.496094 -37 34.496094 -37.253906 L 34.496094 -44.371094 C 34.496094 -44.628906 34.242188 -44.886719 33.855469 -44.886719 L 5.195312 -44.886719 C 4.808594 -44.886719 4.550781 -44.628906 4.550781 -44.371094 L 4.550781 -0.511719 C 4.550781 -0.257812 4.808594 0 5.195312 0 L 34.433594 0 C 34.816406 0 35.074219 -0.257812 35.074219 -0.511719 L 35.074219 -7.824219 C 35.074219 -8.078125 34.816406 -8.335938 34.433594 -8.335938 L 13.144531 -8.335938 L 13.144531 -18.46875 L 30.777344 -18.46875 C 31.097656 -18.46875 31.355469 -18.722656 31.355469 -18.980469 L 31.355469 -26.097656 C 31.355469 -26.355469 31.097656 -26.609375 30.777344 -26.609375 L 13.144531 -26.609375 Z M 13.144531 -36.742188 "/></g></g></g><g fill="#ffffff" fill-opacity="1"><g transform="translate(167.023079, 203.664275)"><g><path d="M 25.519531 -5.066406 L 27.378906 -0.320312 C 27.445312 -0.128906 27.699219 0 27.894531 0 L 35.84375 0 C 36.292969 0 36.550781 -0.320312 36.355469 -0.707031 L 18.851562 -45.847656 C 18.660156 -46.296875 17.890625 -46.296875 17.699219 -45.847656 L 0.191406 -0.707031 C 0 -0.320312 0.257812 0 0.769531 0 L 8.65625 0 C 8.914062 0 9.167969 -0.128906 9.234375 -0.320312 L 10.964844 -5.066406 Z M 13.722656 -12.632812 L 18.273438 -26.097656 L 22.761719 -12.632812 Z M 13.722656 -12.632812 "/></g></g></g><g fill="#ffffff" fill-opacity="1"><g transform="translate(208.701849, 203.664275)"><g><path d="M 53.414062 -0.511719 L 53.414062 -44.4375 C 53.414062 -44.691406 53.15625 -44.949219 52.773438 -44.949219 L 45.332031 -44.949219 C 45.140625 -44.949219 44.820312 -44.757812 44.757812 -44.628906 L 29.367188 -11.671875 L 13.273438 -44.628906 C 13.210938 -44.757812 12.886719 -44.949219 12.695312 -44.949219 L 5.195312 -44.949219 C 4.808594 -44.949219 4.617188 -44.691406 4.617188 -44.4375 L 4.617188 -0.511719 C 4.617188 -0.257812 4.808594 0 5.195312 0 L 12.566406 0 C 12.953125 0 13.210938 -0.257812 13.210938 -0.511719 L 13.210938 -25.710938 L 25.390625 -2.117188 C 25.457031 -1.988281 25.777344 -1.796875 25.96875 -1.796875 L 32.894531 -1.796875 C 33.023438 -1.796875 33.34375 -1.988281 33.40625 -2.117188 L 44.820312 -25.136719 L 44.820312 -0.511719 C 44.820312 -0.257812 45.078125 0 45.460938 0 L 52.773438 0 C 53.15625 0 53.414062 -0.257812 53.414062 -0.511719 Z M 53.414062 -0.511719 "/></g></g></g><g fill="#ffffff" fill-opacity="1"><g transform="translate(272.566322, 203.664275)"><g><path d="M 35.011719 -32.0625 C 35.011719 -45.207031 19.8125 -44.886719 19.8125 -44.886719 L 5.195312 -44.886719 C 4.808594 -44.886719 4.550781 -44.628906 4.550781 -44.371094 L 4.550781 -0.511719 C 4.550781 -0.257812 4.808594 0 5.195312 0 L 19.8125 0 C 22.828125 0 35.652344 -0.578125 35.652344 -13.082031 C 35.652344 -13.082031 35.90625 -20.007812 28.789062 -22.441406 C 32.1875 -23.851562 35.011719 -26.804688 35.011719 -32.0625 Z M 13.082031 -26.609375 L 13.082031 -36.871094 L 19.8125 -36.871094 C 19.8125 -36.871094 26.417969 -36.933594 26.417969 -31.546875 C 26.417969 -26.609375 19.8125 -26.609375 19.8125 -26.609375 Z M 19.8125 -8.207031 L 13.082031 -8.207031 L 13.082031 -18.210938 L 19.8125 -18.210938 C 19.8125 -18.210938 27.058594 -18.59375 27.058594 -13.273438 C 27.058594 -8.976562 22.636719 -8.207031 19.8125 -8.207031 Z M 19.8125 -8.207031 "/></g></g></g><path stroke-linecap="butt" transform="matrix(0, -0.75, 0.75, 0, 335.13051, 202.423362)" fill="none" stroke-linejoin="miter" d="M 0.00198254 5.497861 L 19.60615 5.497861 " stroke="#ffffff" stroke-width="11" stroke-opacity="1" stroke-miterlimit="4"/><path stroke-linecap="butt" transform="matrix(0.749662, 0.022509, -0.022509, 0.749662, 319.181146, 165.246889)" fill="none" stroke-linejoin="miter" d="M 3.616754 16.048665 C 19.743619 1.985413 35.870687 1.985782 51.997958 16.049773 " stroke="#ffffff" stroke-width="11" stroke-opacity="1" stroke-miterlimit="4"/><path stroke-linecap="butt" transform="matrix(0.749713, 0.020748, -0.020748, 0.749713, 312.681313, 152.078472)" fill="none" stroke-linejoin="miter" d="M 3.235644 17.588634 C 25.41278 1.468955 47.587966 1.470083 69.766407 17.591875 " stroke="#ffffff" stroke-width="11" stroke-opacity="1" stroke-miterlimit="4"/><path stroke-linecap="butt" transform="matrix(-0.749445, -0.0288544, 0.0288544, -0.749445, 353.715128, 195.704138)" fill="none" stroke-linejoin="miter" d="M 4.550609 16.651105 C 14.631911 1.783493 24.717604 1.786098 34.796878 16.64891 " stroke="#ffffff" stroke-width="11" stroke-opacity="1" stroke-miterlimit="4"/></svg>