<svg version="1.0" xmlns="http://www.w3.org/2000/svg"
 width="500.000000pt" height="500.000000pt" viewBox="0 0 500.000000 500.000000"
 preserveAspectRatio="xMidYMid meet">

<g transform="translate(0.000000,500.000000) scale(0.100000,-0.100000)"
fill="#fff" stroke="none">
<path d="M1411 2822 c-45 -22 -71 -73 -71 -137 0 -53 9 -71 80 -160 32 -40 40
-58 40 -92 0 -54 -8 -73 -30 -73 -22 0 -30 19 -30 71 l0 40 -52 -3 -53 -3 -3
-40 c-8 -96 36 -156 122 -163 108 -9 159 42 160 159 0 52 -5 74 -26 110 -14
24 -36 53 -48 64 -54 49 -72 134 -32 150 23 9 36 -10 37 -53 0 -37 0 -37 47
-40 l47 -3 6 44 c9 62 -14 113 -59 132 -47 20 -93 19 -135 -3z"/>
<path d="M3000 2723 c-28 -160 -72 -391 -80 -430 -6 -23 -10 -47 -10 -52 0 -7
40 -11 113 -11 159 0 206 28 226 133 11 60 -1 116 -30 140 l-21 17 27 22 c59
46 75 163 31 215 -23 27 -28 28 -134 31 l-109 4 -13 -69z m163 -44 c12 -19 3
-62 -19 -83 -22 -23 -67 -21 -60 2 2 9 8 36 11 60 6 39 9 43 32 40 15 -2 30
-10 36 -19z m-47 -219 c25 -10 26 -14 21 -57 -6 -53 -25 -73 -70 -73 -25 0
-28 3 -24 23 3 12 9 43 12 70 8 50 15 54 61 37z"/>
<path d="M1646 2694 c-3 -9 -6 -27 -6 -40 0 -20 5 -24 30 -24 17 0 30 -5 30
-10 0 -6 -11 -67 -25 -136 -14 -69 -25 -137 -25 -150 0 -23 3 -25 37 -22 l37
3 30 158 30 157 28 0 c29 0 32 3 42 53 l6 27 -104 0 c-85 0 -105 -3 -110 -16z"/>
<path d="M1895 2698 c-2 -7 -15 -87 -29 -178 -15 -91 -28 -175 -31 -187 -5
-21 -2 -23 34 -23 44 0 44 1 56 103 4 31 10 57 14 57 4 0 15 -35 26 -77 l20
-78 38 -3 c44 -4 44 -4 17 98 l-19 75 24 25 c30 32 45 71 45 120 0 58 -33 80
-122 80 -46 0 -70 -4 -73 -12z m99 -54 c33 -13 12 -94 -25 -94 -17 0 -19 5
-14 38 11 66 12 66 39 56z"/>
<path d="M2165 2698 c-2 -7 -8 -42 -14 -78 -5 -36 -19 -114 -30 -174 -12 -61
-21 -116 -21 -123 0 -10 22 -13 85 -13 83 0 85 1 85 24 0 13 3 31 6 40 5 13
-1 16 -33 16 -22 0 -42 2 -45 5 -3 3 -2 22 1 43 5 32 10 37 36 40 35 4 45 16
45 55 0 24 -4 27 -31 27 -29 0 -30 1 -24 33 9 38 20 47 61 47 32 0 44 14 44
51 0 17 -8 19 -80 19 -56 0 -82 -4 -85 -12z"/>
<path d="M2420 2658 c-12 -29 -47 -114 -77 -188 -30 -74 -57 -141 -60 -147 -4
-9 8 -13 40 -13 41 0 46 3 56 30 8 26 15 30 45 30 33 0 36 -2 36 -30 0 -28 3
-30 35 -30 l35 0 0 133 c0 72 -3 162 -7 200 l-6 67 -37 0 c-35 0 -38 -3 -60
-52z m40 -148 c0 -53 -2 -60 -20 -60 -11 0 -20 3 -20 7 0 10 33 113 37 113 2
0 3 -27 3 -60z"/>
<path d="M2635 2688 c-13 -60 -55 -324 -55 -350 0 -25 3 -28 34 -28 39 0 41 4
51 90 13 114 18 121 29 45 10 -65 13 -70 37 -73 24 -3 30 4 59 68 18 38 35 69
37 67 2 -2 -3 -36 -12 -76 -8 -40 -15 -84 -15 -97 0 -23 3 -25 37 -22 l37 3
13 75 c7 41 22 125 33 185 26 143 27 137 -17 133 -37 -3 -39 -5 -92 -107 -35
-68 -56 -99 -61 -90 -4 8 -13 56 -20 107 l-13 92 -38 0 c-32 0 -40 -4 -44 -22z"/>
<path d="M3395 2663 c-11 -2 -39 -11 -62 -19 l-42 -15 17 -37 c9 -20 17 -38
18 -40 1 -2 26 4 55 12 29 9 70 16 91 16 45 0 126 -29 165 -59 l27 -22 27 33
c32 38 28 46 -39 85 -70 41 -184 62 -257 46z"/>
<path d="M3381 2504 c-66 -28 -67 -33 -15 -103 2 -2 20 4 40 14 49 23 113 16
158 -18 l33 -26 28 29 29 30 -24 25 c-57 60 -172 83 -249 49z"/>
<path d="M3432 2338 c3 -31 6 -33 46 -36 l42 -3 0 35 c0 36 0 36 -46 36 -45 0
-45 0 -42 -32z"/>
</g>
</svg>
